{
	"asset":{
		"generator":"Khronos glTF Blender I/O v3.6.27",
		"version":"2.0"
	},
	"scene":0,
	"scenes":[
		{
			"name":"Scene",
			"nodes":[
				0,
				1
			]
		}
	],
	"nodes":[
		{
			"mesh":0,
			"name":"Circle.001",
			"scale":[
				0.7522115707397461,
				0.7522115707397461,
				0.7522115707397461
			],
			"translation":[
				0,
				-3.0356152057647705,
				0
			]
		},
		{
			"mesh":1,
			"name":"NurbsPath",
			"scale":[
				0.23626577854156494,
				0.23626577854156494,
				0.23626577854156494
			],
			"translation":[
				0,
				-3.138259172439575,
				0
			]
		}
	],
	"materials":[
		{
			"doubleSided":true,
			"name":"Material.001",
			"pbrMetallicRoughness":{
				"baseColorFactor":[
					0.7991030216217041,
					0.19120144844055176,
					0.036889515817165375,
					1
				],
				"metallicFactor":0,
				"roughnessFactor":0.5
			}
		},
		{
			"doubleSided":true,
			"name":"Material.002",
			"pbrMetallicRoughness":{
				"baseColorFactor":[
					0.7991030216217041,
					0.19120144844055176,
					0.036889515817165375,
					1
				],
				"metallicFactor":0,
				"roughnessFactor":0.5
			}
		}
	],
	"meshes":[
		{
			"name":"Circle.001",
			"primitives":[
				{
					"attributes":{
						"POSITION":0,
						"NORMAL":1,
						"TEXCOORD_0":2
					},
					"indices":3,
					"material":0
				}
			]
		},
		{
			"name":"NurbsPath",
			"primitives":[
				{
					"attributes":{
						"POSITION":4,
						"NORMAL":5,
						"TEXCOORD_0":6
					},
					"indices":7,
					"material":1
				}
			]
		}
	],
	"accessors":[
		{
			"bufferView":0,
			"componentType":5126,
			"count":88,
			"max":[
				0.054331228137016296,
				5.969601631164551,
				0.054331228137016296
			],
			"min":[
				-0.0543312132358551,
				-4.509300026711571e-07,
				-0.0543312132358551
			],
			"type":"VEC3"
		},
		{
			"bufferView":1,
			"componentType":5126,
			"count":88,
			"type":"VEC3"
		},
		{
			"bufferView":2,
			"componentType":5126,
			"count":88,
			"type":"VEC2"
		},
		{
			"bufferView":3,
			"componentType":5123,
			"count":162,
			"type":"SCALAR"
		},
		{
			"bufferView":4,
			"componentType":5126,
			"count":196,
			"max":[
				0.33128970861434937,
				1.8060201406478882,
				0.33128970861434937
			],
			"min":[
				-2.1722166538238525,
				-1.7418278455734253,
				-0.33128979802131653
			],
			"type":"VEC3"
		},
		{
			"bufferView":5,
			"componentType":5126,
			"count":196,
			"type":"VEC3"
		},
		{
			"bufferView":6,
			"componentType":5126,
			"count":196,
			"type":"VEC2"
		},
		{
			"bufferView":7,
			"componentType":5123,
			"count":948,
			"type":"SCALAR"
		}
	],
	"bufferViews":[
		{
			"buffer":0,
			"byteLength":1056,
			"byteOffset":0,
			"target":34962
		},
		{
			"buffer":0,
			"byteLength":1056,
			"byteOffset":1056,
			"target":34962
		},
		{
			"buffer":0,
			"byteLength":704,
			"byteOffset":2112,
			"target":34962
		},
		{
			"buffer":0,
			"byteLength":324,
			"byteOffset":2816,
			"target":34963
		},
		{
			"buffer":0,
			"byteLength":2352,
			"byteOffset":3140,
			"target":34962
		},
		{
			"buffer":0,
			"byteLength":2352,
			"byteOffset":5492,
			"target":34962
		},
		{
			"buffer":0,
			"byteLength":1568,
			"byteOffset":7844,
			"target":34962
		},
		{
			"buffer":0,
			"byteLength":1896,
			"byteOffset":9412,
			"target":34963
		}
	],
	"buffers":[
		{
			"byteLength":11308,
			"uri":"data:application/octet-stream;base64,"
		}
	]
}
